<svg width="46" height="46" viewBox="0 0 46 46" fill="none" xmlns="http://www.w3.org/2000/svg">
<g clip-path="url(#clip0_63_1939)">
<path d="M28.6738 44.8313C29.2599 44.2347 29.722 43.5402 30.0425 42.7655C30.3775 41.9671 30.5478 41.1034 30.545 40.2338C30.545 39.3256 30.363 38.4441 30.005 37.613C29.6556 36.7998 29.1416 36.0667 28.5034 35.4671L27.9749 34.9714C27.9172 34.9151 27.8219 34.921 27.767 34.9804C27.7555 34.9982 27.7439 35.013 27.7382 35.0308L27.5043 35.7283C27.357 36.1616 27.0855 36.6068 26.7044 37.0431C26.6813 37.0728 26.6524 37.0788 26.6293 37.0788C26.6091 37.0817 26.5802 37.0788 26.5513 37.052C26.5282 37.0283 26.5167 36.9956 26.5167 36.963C26.586 35.844 26.2568 34.5767 25.5435 33.2025C24.9545 32.0598 24.1344 31.1694 23.1093 30.5461L22.3614 30.092C22.2632 30.0326 22.139 30.1128 22.1448 30.2285L22.1823 31.1219C22.2083 31.7303 22.139 32.2735 21.9773 32.7217C21.7752 33.2708 21.4922 33.7813 21.1254 34.2413C20.8713 34.5589 20.5854 34.8468 20.2678 35.0961C19.5026 35.6986 18.8817 36.4762 18.4486 37.3578C18.0183 38.2511 17.7931 39.2336 17.7931 40.2338C17.7931 41.1094 17.9606 41.9642 18.2955 42.7655C18.6161 43.5372 19.081 44.2377 19.6643 44.8283C19.774 44.9411 19.9328 45.0509 20.0483 45.1518C22.0322 45.5822 23.8369 45.6297 24.3076 45.6297C25.7515 45.6297 27.1058 45.4486 28.3475 45.1221C28.4572 45.0272 28.5785 44.9322 28.6738 44.8313Z" fill="#1B1B1B"/>
<path d="M14.6863 36.5731C14.6885 35.1535 15.0067 33.7538 15.6216 32.4833C16.2364 31.2216 17.1218 30.1201 18.2086 29.2612C18.6611 28.9007 19.0703 28.4913 19.434 28.0373C19.9557 27.3853 20.3627 26.6577 20.6463 25.8767C20.8801 25.238 20.9776 24.4681 20.9386 23.5981L20.8823 22.3253C20.8758 22.1584 21.0533 22.0471 21.1919 22.1339L22.2592 22.7792C23.7205 23.6626 24.8874 24.9354 25.7296 26.562C26.7449 28.5224 27.2104 30.3226 27.1151 31.9203C27.1129 31.967 27.1303 32.016 27.1671 32.0471C27.206 32.0849 27.2493 32.0894 27.2796 32.0872C27.3078 32.0849 27.3511 32.0716 27.3857 32.0315C27.9291 31.4107 28.3145 30.7743 28.5223 30.1557L28.8579 29.1677C28.8665 29.141 28.8795 29.1188 28.899 29.0943C28.9748 29.0075 29.1047 28.9986 29.1934 29.0787L29.9447 29.7863C30.8539 30.643 31.5835 31.6822 32.0836 32.8415C32.5967 34.0275 32.8565 35.2848 32.8565 36.5776C32.8565 36.9537 32.8327 37.3253 32.7894 37.6969C37.8899 37.1717 41.2802 34.1766 41.2802 30.5473C41.2802 29.9465 41.1611 29.3635 40.9576 28.805C43.5793 27.214 45.2398 24.902 45.2398 22.3186C45.2398 19.3524 43.0597 16.7356 39.7366 15.1668C40.5311 13.9051 40.9727 12.5166 40.9727 11.0569C40.9684 5.29589 34.1338 0.627441 25.7014 0.627441C17.2712 0.627441 10.4366 5.29589 10.4366 11.0547C10.4366 11.1125 10.4474 11.1682 10.4496 11.2238C4.62376 12.0204 0.235474 15.5295 0.235474 19.7418C0.235474 22.9995 2.86585 25.8366 6.75404 27.323C5.33169 28.5536 4.47655 30.1068 4.47655 31.7957C4.47655 35.7921 9.09865 39.0342 14.9526 39.0342H15.011" fill="#1B1B1B"/>
</g>
<defs>
<clipPath id="clip0_63_1939">
<rect width="45" height="45" fill="white" transform="translate(0.235474 0.627441)"/>
</clipPath>
</defs>
</svg>
