<svg width="292" height="56" viewBox="0 0 292 56" fill="none" xmlns="http://www.w3.org/2000/svg">
<g clip-path="url(#clip0_63_1902)">
<path d="M151.579 16.6682C153.04 16.6682 154.514 17.0261 155.997 17.742C158.912 19.1409 160.365 21.5512 160.365 24.9729C160.365 28.3946 158.908 30.8213 155.997 32.2202C154.514 32.9262 153.04 33.2776 151.579 33.2776H145.927V39.6415H144.22V16.6682H151.579ZM145.927 18.3364V31.6291H151.579C152.813 31.6193 154.014 31.3237 155.186 30.7458C157.461 29.6457 158.596 27.7214 158.596 24.9729C158.596 22.2244 157.464 20.3132 155.199 19.2C154.018 18.6221 152.81 18.3331 151.576 18.3331H145.924L145.927 18.3364Z" fill="black"/>
<path d="M178.666 24.9927C178.666 27.8889 177.615 30.0694 175.516 31.5339C174.185 32.4534 172.582 33.0182 170.709 33.2349L177.402 39.6482H174.884L168.257 33.2973L166.55 31.6292H169.897C171.131 31.6292 172.339 31.3402 173.52 30.7622C175.782 29.649 176.917 27.728 176.917 24.9894C176.917 22.2507 175.785 20.3297 173.52 19.2165C172.349 18.6385 171.141 18.3496 169.897 18.3496H164.195V39.6416H162.488V16.6847H169.897C171.357 16.6847 172.831 17.0426 174.315 17.7585C177.216 19.1574 178.67 21.5677 178.67 24.9894L178.666 24.9927Z" fill="black"/>
<path d="M192.426 16.2841C195.73 16.2841 198.551 17.4399 200.89 19.7484C203.229 22.0569 204.4 24.8416 204.4 28.1024C204.4 31.3632 203.229 34.1478 200.89 36.4563C198.551 38.7648 195.73 39.9207 192.426 39.9207C189.123 39.9207 186.302 38.7648 183.963 36.4563C181.624 34.1478 180.453 31.3632 180.453 28.1024C180.453 24.8416 181.624 22.0569 183.963 19.7484C186.302 17.4399 189.123 16.2841 192.426 16.2841ZM192.426 38.2492C195.264 38.2492 197.689 37.2608 199.706 35.284C201.708 33.2973 202.71 30.9002 202.71 28.0991C202.71 25.298 201.708 22.9042 199.706 20.9142C197.693 18.9373 195.264 17.9489 192.426 17.9489C189.589 17.9489 187.163 18.9373 185.147 20.9142C183.144 22.9009 182.143 25.298 182.143 28.0991C182.143 30.9002 183.144 33.294 185.147 35.284C187.16 37.2608 189.589 38.2492 192.426 38.2492Z" fill="black"/>
<path d="M222.381 18.3693H214.453V39.6449H212.747V18.3693H204.852V16.6847H222.381V18.3693Z" fill="black"/>
<path d="M241.973 18.3528H225.941V37.9471H241.973V39.6481H224.168V16.6387H241.973V18.3528ZM238.58 29.163H228.619V27.4784H238.58V29.163Z" fill="black"/>
<path d="M245.463 39.7269H243.756V16.6682H245.463V39.7236V39.7269ZM250.66 31.3106L265.946 46.3995H263.541L248.254 31.3106L263.198 16.6058H265.62L250.66 31.3106Z" fill="black"/>
<path d="M269.569 20.727H267.733L270.235 16.6223H272.184L269.569 20.727Z" fill="black"/>
<path d="M291.5 18.3693H283.572V39.6449H281.866V18.3693H273.971V16.6847H291.5V18.3693Z" fill="black"/>
<path d="M7.85906 16.5895C9.31955 16.5895 10.7933 16.9474 12.2771 17.6633C15.1915 19.0622 16.6453 21.4725 16.6453 24.8942C16.6453 28.3158 15.1881 30.7426 12.2771 32.1415C10.7933 32.8475 9.31955 33.1988 7.85906 33.1988H2.20674V39.5628H0.500061V16.5895H7.85906ZM2.20674 18.2576V31.5504H7.85906C9.09333 31.5405 10.2943 31.245 11.4654 30.667C13.7409 29.567 14.8754 27.6427 14.8754 24.8942C14.8754 22.1456 13.7443 20.2345 11.4787 19.1213C10.2976 18.5433 9.09 18.2544 7.85574 18.2544H2.20674V18.2576Z" fill="black"/>
<path d="M38.3064 39.5989H36.2438L26.0569 20.5497L15.9367 39.5989H13.7775L24.8892 18.7239V18.7075L26.0603 16.5599L27.1814 18.6451L38.3098 39.6022L38.3064 39.5989Z" fill="black"/>
<path d="M56.9601 24.9105C56.9601 27.8068 55.9088 29.9872 53.8096 31.4518C52.4788 32.3712 50.8753 32.9361 49.0023 33.1528L55.6959 39.566H53.1775L46.5504 33.2152L44.8437 31.547H48.1905C49.4248 31.547 50.6324 31.258 51.8135 30.6801C54.0757 29.5669 55.2102 27.6459 55.2102 24.9072C55.2102 22.1686 54.0791 20.2475 51.8135 19.1343C50.6424 18.5564 49.4348 18.2674 48.1905 18.2674H42.4883V39.5594H40.7816V16.6058H48.1905C49.651 16.6058 51.1248 16.9638 52.6086 17.6796C55.5096 19.0785 56.9634 21.4888 56.9634 24.9105H56.9601Z" fill="black"/>
<path d="M61.4846 39.6482H59.778V16.5895H61.4846V39.6449V39.6482ZM66.6812 31.2319L81.9681 46.3208H79.5628L64.2759 31.2319L79.2201 16.5271H81.642L66.6812 31.2319Z" fill="black"/>
<path fill-rule="evenodd" clip-rule="evenodd" d="M96.7626 30.2139L96.7127 30.0957L96.3534 29.0941C95.9043 29.8592 95.4186 30.4043 95.0659 30.7491L95.8211 33.5108C96.1704 32.7063 96.7427 32.02 97.5511 31.6555L96.7659 30.2172L96.7626 30.2139Z" fill="black"/>
<path fill-rule="evenodd" clip-rule="evenodd" d="M126.288 33.4517L125.57 33.12L122.735 35.2971C120.829 36.5877 118.786 37.9734 116.933 40.9617L114.292 46.5112L113.427 49.2072C115.965 45.3389 122.027 40.3542 127.203 37.8913C127.326 36.6468 127.44 34.775 126.591 33.7472L126.292 33.4484L126.288 33.4517Z" fill="black"/>
<path fill-rule="evenodd" clip-rule="evenodd" d="M102.628 33.8326L104.8 35.3858L106.287 36.6862L106.361 36.7584L106.583 36.9817L106.733 37.1361L106.88 37.2937L107.102 37.54L107.325 37.7928L107.382 35.1494C107.382 32.8048 105.173 31.9707 102.807 30.9462H102.804C100.915 30.1022 99.4341 29.4192 97.9403 28.0991L98.2297 29.0449C99.0881 31.3566 100.429 32.3385 102.628 33.8326Z" fill="black"/>
<path fill-rule="evenodd" clip-rule="evenodd" d="M111.441 26.7101H112.908C112.509 16.0608 125.463 13.5323 129.006 10.3339L112.176 0.741943L95.342 10.3339C98.8885 13.5323 111.84 16.0641 111.441 26.7101Z" fill="black"/>
<path fill-rule="evenodd" clip-rule="evenodd" d="M107.419 40.9617C105.565 37.9734 103.519 36.5877 101.616 35.2971L98.782 33.12L98.0634 33.4517L97.764 33.7505C96.9156 34.7783 97.0287 36.6468 97.1518 37.8946C102.328 40.3574 108.39 45.3422 110.928 49.2105L110.063 46.5145L107.422 40.9649L107.419 40.9617Z" fill="black"/>
<path fill-rule="evenodd" clip-rule="evenodd" d="M104.468 24.129C105.449 26.0566 104.97 27.7576 103.899 29.4882C106.181 30.4667 108.603 31.4617 109.085 34.1019C109.365 35.6321 108.946 39.7237 109.062 40.2294L109.88 41.671L111.76 45.9399L112.176 47.1516L112.592 45.9399L114.471 41.671L115.29 40.2294C115.406 39.7237 114.987 35.6354 115.267 34.1019C115.749 31.4617 118.171 30.4667 120.453 29.4882C119.382 27.7543 118.903 26.0566 119.884 24.129C121.84 20.2805 127.489 17.6469 129.342 12.2943C128.198 13.1087 126.724 13.8508 125.141 14.6521C120.283 17.1018 114.212 20.1688 114.734 27.114C114.857 28.7723 113.616 28.4866 112.183 28.4866C110.749 28.4866 109.508 28.7723 109.631 27.114C110.153 20.1688 104.082 17.105 99.2245 14.6521C97.6376 13.8508 96.1671 13.1087 95.0226 12.2943C96.8724 17.6469 102.521 20.2772 104.481 24.129H104.468Z" fill="black"/>
<path fill-rule="evenodd" clip-rule="evenodd" d="M97.1685 24.1848C98.0102 25.6921 98.6123 26.4671 99.9131 27.4062L100.286 27.6656L100.512 27.8134L100.742 27.9546L101.131 28.1812L101.211 28.2239L101.527 28.3913L101.923 28.5917L102.239 28.746C102.751 27.948 103.097 27.1271 103.04 26.1649L103.03 26.0402L102.874 25.3013L102.834 25.1798L102.741 24.9401L102.222 23.9977L101.976 23.6496L101.703 23.3015L98.456 20.0506C96.6329 18.297 95.0726 16.6387 93.9248 14.3663C94.0113 15.7521 94.2575 17.0557 94.5769 18.2346C95.3886 21.2196 96.4 22.7958 97.1718 24.1848H97.1685Z" fill="black"/>
<path fill-rule="evenodd" clip-rule="evenodd" d="M117.469 37.297L117.615 37.1394L117.765 36.985L117.988 36.7617L118.061 36.6895L119.548 35.3891L121.721 33.8359C123.923 32.3451 125.264 31.3599 126.119 29.0481L126.408 28.1024C124.914 29.4225 123.434 30.1088 121.544 30.956H121.541C119.172 31.9773 116.97 32.8114 116.967 35.156L117.023 37.7994L117.246 37.5466L117.469 37.3003V37.297Z" fill="black"/>
<path fill-rule="evenodd" clip-rule="evenodd" d="M132.217 12.163C132.483 16.8785 130.959 21.4166 128.89 24.8022L128.627 25.2981L128.611 25.3638C128.534 26.0369 129.259 27.692 129.459 28.0466C130.766 30.4044 131.512 29.3929 131.043 31.1071L128.873 38.7846L128.085 39.4315C125.181 40.7975 122.586 42.597 120.466 44.3637C117.229 47.063 115.137 49.6276 114.728 50.4978C114.245 51.5223 113.41 51.3187 112.173 51.3187C110.935 51.3187 110.1 51.5223 109.618 50.4978C109.208 49.6276 107.112 47.063 103.879 44.3637C101.76 42.597 99.1646 40.8008 96.2603 39.4315L95.4718 38.7846L93.3027 31.1071C92.8303 29.3929 93.5788 30.4011 94.8863 28.0466C95.0859 27.6887 95.8145 26.0369 95.7346 25.3638L95.718 25.2981L95.4552 24.8022C93.3859 21.4134 91.8622 16.8785 92.1283 12.163L88.0429 14.4912V41.9895L112.169 55.7387L136.296 41.9895V14.4912L132.21 12.163H132.217Z" fill="black"/>
<path fill-rule="evenodd" clip-rule="evenodd" d="M127.636 30.0957L127.586 30.2139L126.801 31.6522C127.609 32.0167 128.178 32.703 128.531 33.5075L129.286 30.7458C128.93 30.401 128.448 29.8559 127.998 29.0908L127.639 30.0924L127.636 30.0957Z" fill="black"/>
<path fill-rule="evenodd" clip-rule="evenodd" d="M125.896 20.0506L122.649 23.3015L122.376 23.6496L122.13 23.9977L121.611 24.9401L121.518 25.1798L121.478 25.3013L121.321 26.0402L121.311 26.1649C121.252 27.1271 121.598 27.948 122.11 28.746L122.426 28.5917L122.822 28.3913L123.138 28.2239L123.218 28.1812L123.607 27.9546L123.837 27.8134L124.063 27.6656L124.435 27.4062C125.736 26.4638 126.338 25.6921 127.18 24.1848C127.955 22.7958 128.967 21.2196 129.775 18.2346C130.094 17.0557 130.337 15.7521 130.427 14.3663C129.279 16.6387 127.716 18.297 125.896 20.0506Z" fill="black"/>
<path fill-rule="evenodd" clip-rule="evenodd" d="M129.209 10.1401C129.635 9.70336 129.885 9.25349 129.895 8.76749L129.815 1.599C129.815 1.599 128.764 7.33248 128.584 7.97938C128.434 8.51464 128.102 9.01049 127.553 9.50634L129.01 10.3338C129.076 10.2616 129.143 10.1992 129.213 10.1401H129.209Z" fill="black"/>
<path fill-rule="evenodd" clip-rule="evenodd" d="M92.6905 8.58689L94.5336 1.60229C94.5336 1.60229 91.6393 7.80207 91.26 9.3947C91.0338 10.347 90.7709 11.7853 90.7011 12.974L92.1316 12.1662C92.1982 10.9808 92.3745 9.78218 92.6905 8.58689Z" fill="black"/>
<path fill-rule="evenodd" clip-rule="evenodd" d="M92.135 12.1629L92.3546 12.0381L92.135 12.1629Z" fill="black"/>
</g>
<defs>
<clipPath id="clip0_63_1902">
<rect width="291" height="55" fill="white" transform="translate(0.500061 0.741943)"/>
</clipPath>
</defs>
</svg>
