<svg width="40" height="40" viewBox="0 0 40 40" fill="none" xmlns="http://www.w3.org/2000/svg">
<path fill-rule="evenodd" clip-rule="evenodd" d="M20 18.762C23.4294 18.762 26.2094 16.0159 26.2094 12.6283C26.2094 9.24078 23.4294 6.49463 20 6.49463C16.5706 6.49463 13.7906 9.24078 13.7906 12.6283C13.7906 16.0159 16.5706 18.762 20 18.762ZM15.8931 20.0795C11.5339 20.0795 8 23.6134 8 27.9726C8 30.1522 9.76693 31.9192 11.9465 31.9192H28.0535C30.2331 31.9192 32 30.1522 32 27.9726C32 23.6134 28.4661 20.0795 24.1069 20.0795H15.8931Z" fill="#fff"/>
<path d="M39 20.1847C39 30.4126 30.5146 38.742 20 38.742C9.48537 38.742 1 30.4126 1 20.1847C1 9.9568 9.48537 1.62744 20 1.62744C30.5146 1.62744 39 9.9568 39 20.1847Z" stroke="#fff" stroke-width="2"/>
</svg>
