<svg width="27" height="29" viewBox="0 0 27 29" fill="none" xmlns="http://www.w3.org/2000/svg">
<path fill-rule="evenodd" clip-rule="evenodd" d="M15.8496 2.59231C15.8539 2.53321 15.8561 2.47347 15.8561 2.4132C15.8561 1.15081 14.8826 0.127441 13.6817 0.127441C12.4807 0.127441 11.5072 1.15081 11.5072 2.4132C11.5072 2.49837 11.5116 2.58244 11.5202 2.66519C6.60064 3.7393 2.91732 8.12074 2.91732 13.3625V21.9472H1.68213C1.12984 21.9472 0.682129 22.3949 0.682129 22.9472V23.9949C0.682129 24.5472 1.12984 24.9949 1.68213 24.9949H10.7017V24.995C10.7017 26.725 12.0358 28.1274 13.6816 28.1274C15.3274 28.1274 16.6615 26.725 16.6615 24.995V24.9949H25.6813C26.2336 24.9949 26.6813 24.5472 26.6813 23.9949V22.9472C26.6813 22.3949 26.2336 21.9472 25.6813 21.9472H24.8159V13.3625C24.8159 7.99245 20.95 3.52535 15.8496 2.59231Z" fill="#DB0000"/>
</svg>
